<svg version="1.1" xmlns="http://www.w3.org/2000/svg" viewBox="-2557.07837620705 -1157.1200439453125 5608.598356828388 2590.7200561523437"><desc>Created with Snap</desc><defs></defs><g><g transform="matrix(21.9835,0,0,21.9835,-2359.796,-959.8377)"><g><path d="M78.4,66.5c-5.5,4.8-9.9,15.2-9.9,15.2s-6.9-11.4-12.9-15.3c-9.5-6.1-13.6-6.2-13.6-6.2V65c0,0,7.8,1.2,11.7,4.6   c8.2,7.1,14.8,18.5,14.8,18.5S74.4,75,80.1,70.5C88.1,64.3,95,65,95,65v-4.8C95,60.1,85.1,60.7,78.4,66.5z" style="" fill="#f0dd7a"></path><path d="M42,80c-6.4-3.6-17.8-4.3-17.8-4.3s8.7-10.1,10.5-17C37.5,47.9,36.2,44,36.2,44l-4.6,1.6c0,0,1.3,7.7-0.6,12.4   c-4.1,9.9-13,19.8-13,19.8s14.6,1.3,20.7,5.1c8.6,5.4,10.2,12,10.2,12l4.6-1.6C53.5,93.4,49.7,84.4,42,80z" style="" fill="#f0dd7a"></path><path d="M35.3,36.8c11.3-0.9,14.6-3.4,14.6-3.4l-3-3.8c0,0-6.9,3.7-12.1,3.4c-10.9-0.6-23.3-5.6-23.3-5.6s3.5,14,1.8,20.9   C10.9,58.2,5,61.8,5,61.8l3,3.8c0,0,7.5-6.5,9.1-15.1c1.3-7.1-1.7-18-1.7-18S28,37.4,35.3,36.8z" style="" fill="#f0dd7a"></path><path d="M37.4,17.8c7.3-1.1,16.7-7.4,16.7-7.4s-0.6,13.2,2.4,19.8c4.6,10.2,8,12.5,8,12.5l2.7-4c0,0-5.9-5.2-7.3-10.2   C56.9,18.2,57.7,5,57.7,5s-12.3,7.8-19.5,8.5c-10.2,1-15.6-3.3-15.6-3.3l-2.7,4.1C19.9,14.2,28.6,19.1,37.4,17.8z" style="" fill="#f0dd7a"></path><path d="M65,60.5c0,0,3.1-7.2,7.4-10.1c9-6.1,21.9-9.7,21.9-9.7s-11.5-8.9-14.5-15.4c-4.2-9.1-1.9-15.6-1.9-15.6l-4.8-1.2   c0,0-1.9,9.6,2.2,17.4c3.4,6.4,12.5,13.2,12.5,13.2S75,42.9,69.6,47.8c-8.3,7.6-9.4,11.5-9.4,11.5L65,60.5z" style="" fill="#f0dd7a"></path></g><desc>Created with Snap</desc><defs></defs></g><g><g transform="matrix(1.024,0,0,-1.024,0,0)"><path d="M287 355L287 161Q287 123 292 99Q297 76 312 63Q328 51 356 46Q385 41 433 40L433 0L35 0L35 40Q68 41 89 46Q110 51 121 63Q132 75 136 97Q140 119 140 154L140 616Q140 651 136 672Q133 694 123 706Q113 719 94 723Q76 728 46 730L46 770L658 770L670 559L628 559Q622 602 610 631Q599 661 578 679Q557 698 524 706Q491 714 443 714L305 714Q287 714 287 697L287 408Q348 408 386 413Q425 418 448 432Q471 447 481 472Q491 497 495 538L532 538L532 225L495 225Q489 267 478 292Q467 318 444 331Q422 345 384 350Q346 355 287 355ZM1017 540Q1077 540 1130 519Q1184 499 1224 463Q1265 427 1288 377Q1312 328 1312 269Q1312 208 1288 157Q1265 106 1224 69Q1184 32 1130 11Q1077 -10 1017 -10Q958 -10 905 10Q852 31 812 68Q772 105 749 156Q726 208 726 269Q726 328 749 378Q772 428 812 464Q852 500 905 520Q958 540 1017 540ZM1017 482Q987 482 962 466Q937 451 919 423Q902 395 892 355Q883 316 883 268Q883 218 892 178Q902 138 919 110Q937 82 961 66Q986 51 1017 51Q1048 51 1073 66Q1099 82 1117 110Q1135 139 1145 179Q1155 219 1155 268Q1155 316 1145 355Q1135 394 1117 422Q1099 451 1073 466Q1048 482 1017 482ZM1677 540Q1737 540 1790 519Q1844 499 1884 463Q1925 427 1948 377Q1972 328 1972 269Q1972 208 1948 157Q1925 106 1884 69Q1844 32 1790 11Q1737 -10 1677 -10Q1618 -10 1565 10Q1512 31 1472 68Q1432 105 1409 156Q1386 208 1386 269Q1386 328 1409 378Q1432 428 1472 464Q1512 500 1565 520Q1618 540 1677 540ZM1677 482Q1647 482 1622 466Q1597 451 1579 423Q1562 395 1552 355Q1543 316 1543 268Q1543 218 1552 178Q1562 138 1579 110Q1597 82 1621 66Q1646 51 1677 51Q1708 51 1733 66Q1759 82 1777 110Q1795 139 1805 179Q1815 219 1815 268Q1815 316 1805 355Q1795 394 1777 422Q1759 451 1733 466Q1708 482 1677 482ZM2490 -10L2490 64L2486 64Q2417 -10 2307 -10Q2250 -10 2202 10Q2155 30 2120 66Q2086 102 2067 151Q2048 201 2048 261Q2048 321 2067 372Q2087 423 2120 460Q2154 498 2200 519Q2247 540 2301 540Q2351 540 2389 525Q2428 510 2457 474L2461 474L2461 559Q2461 618 2459 660Q2458 703 2455 716Q2450 737 2424 746Q2399 756 2346 756L2346 790L2599 830L2599 258Q2599 183 2600 142Q2602 102 2606 81Q2608 68 2612 60Q2616 52 2624 47Q2632 43 2645 41Q2659 40 2680 40L2680 1L2490 -10ZM2459 248L2459 287Q2459 325 2451 357Q2443 390 2427 415Q2409 444 2381 459Q2353 474 2321 474Q2262 474 2231 420Q2200 366 2200 263Q2200 159 2231 103Q2262 47 2320 47Q2353 47 2383 64Q2413 81 2432 110Q2446 132 2452 164Q2459 197 2459 248Z" style="" fill="#832161"></path></g></g><g transform="matrix(1,0,0,1,-12.288,1116.16)"><g transform="matrix(1.024,0,0,-1.024,0,0)"><path d="M688 708L707 770L756 770L736 517L696 517Q675 609 614 662Q554 715 468 715Q409 715 363 691Q317 668 285 624Q254 581 237 518Q221 456 221 378Q221 223 284 139Q348 56 472 56Q572 56 637 110Q703 164 731 271L775 271L775 0L728 0L714 79Q604 -10 447 -10Q356 -10 282 17Q208 44 156 93Q104 143 75 214Q47 285 47 372Q47 463 77 538Q107 613 161 667Q216 721 291 750Q367 780 459 780Q520 780 573 763Q626 746 688 708ZM1151 540Q1211 540 1264 519Q1318 499 1358 463Q1399 427 1422 377Q1446 328 1446 269Q1446 208 1422 157Q1399 106 1358 69Q1318 32 1264 11Q1211 -10 1151 -10Q1092 -10 1039 10Q986 31 946 68Q906 105 883 156Q860 208 860 269Q860 328 883 378Q906 428 946 464Q986 500 1039 520Q1092 540 1151 540ZM1151 482Q1121 482 1096 466Q1071 451 1053 423Q1036 395 1026 355Q1017 316 1017 268Q1017 218 1026 178Q1036 138 1053 110Q1071 82 1095 66Q1120 51 1151 51Q1182 51 1207 66Q1233 82 1251 110Q1269 139 1279 179Q1289 219 1289 268Q1289 316 1279 355Q1269 394 1251 422Q1233 451 1207 466Q1182 482 1151 482ZM1537 64Q1537 96 1558 118Q1580 141 1612 141Q1645 141 1667 118Q1689 96 1689 64Q1689 33 1667 11Q1645 -10 1612 -10Q1580 -10 1558 11Q1537 33 1537 64Z" style="" fill="#832161"></path></g></g></g></svg>