<svg version="1.1" xmlns="http://www.w3.org/2000/svg" viewBox="0 0 250 250"><desc>Created with Snap</desc><defs></defs><g transform="matrix(0.0548,0,0,0.0548,18.4665,174.1132)"><g transform="matrix(6.1683,0,0,6.1683,913.4463,-2986.4458)">
<g>
	<g>
		<path fill-rule="evenodd" clip-rule="evenodd" d="M167,19l64,37l64,37v74v73l-64,37l-64,37l-64-37l-64-37v-73V93l64-37L167,19z
			 M167,61l46,26l46,27v53v53l-46,26l-46,27l-46-27l-46-26v-53v-53l46-27L167,61z" style="" fill="#e0aaff"></path>
		<path d="M168,72l40,23l0,0l39,23l2,1v2v46v45v2l-2,1l-39,23l0,0l-40,23l-1,1l-2-1l-40-23l0,0l-39-23l-2-1v-2v-45v-46v-2l2-1l39-23
			l0,0l40-23l2-1L168,72z M204,101l-37-22l-38,22l0,0l-38,22v44v43l38,22l0,0l38,22l37-22l0,0l38-22v-43v-44L204,101L204,101z" style="" fill="#e0aaff"></path>
	</g>
</g>
<desc>Created with Snap</desc><defs></defs></g><g><g transform="matrix(1.024,0,0,-1.024,0,0)"><path d="M366 -12Q273 -12 200 31Q128 75 88 149Q49 224 49 312Q49 415 101 488Q153 562 234 599Q316 636 401 636Q496 636 568 591Q640 547 678 474Q717 401 717 319Q717 228 669 152Q621 76 540 32Q460 -12 366 -12ZM400 12Q460 12 507 44Q555 77 582 140Q610 203 610 290Q610 382 579 455Q549 528 492 569Q436 610 360 610Q263 610 209 540Q156 471 156 348Q156 253 187 176Q219 99 274 55Q330 12 400 12ZM803 0Q800 0 800 6Q800 12 803 12Q836 12 848 26Q860 41 860 81L860 592Q860 627 853 642Q847 658 830 658Q815 658 790 646L789 646Q785 646 783 651Q781 656 783 658L924 724L928 725Q932 725 937 721Q943 717 943 714L943 81Q943 40 954 26Q965 12 999 12Q1002 12 1002 6Q1002 0 999 0Q975 0 960 1L901 2L843 1Q828 0 803 0ZM1534 62L1535 62Q1538 62 1540 57Q1543 52 1540 51L1412 -11L1406 -12Q1396 -12 1387 8Q1379 28 1378 62Q1342 28 1304 7Q1266 -13 1221 -13Q1178 -13 1142 10Q1106 34 1085 78Q1064 122 1064 181Q1064 255 1099 304Q1134 353 1187 376Q1240 399 1293 399Q1337 399 1377 383L1377 592Q1377 627 1370 642Q1364 658 1347 658Q1336 658 1307 646L1305 646Q1301 646 1299 651Q1297 656 1299 657L1440 724L1444 725Q1448 725 1453 721Q1458 717 1458 714L1458 114Q1458 79 1465 64Q1472 50 1489 50Q1509 50 1534 62ZM1271 31Q1300 31 1325 44Q1351 57 1377 81L1377 82L1377 320Q1357 348 1332 361Q1308 375 1274 375Q1217 375 1186 335Q1155 296 1155 212Q1155 128 1187 79Q1220 31 1271 31ZM2397 625Q2399 625 2399 619Q2399 613 2397 613Q2364 613 2322 578Q2280 544 2247 490L2133 305L2133 81Q2133 50 2138 36Q2144 22 2159 17Q2175 12 2209 12Q2212 12 2212 6Q2212 0 2209 0Q2176 0 2158 1L2085 2L2013 1Q1993 0 1960 0Q1958 0 1958 6Q1958 12 1960 12Q1994 12 2009 17Q2025 22 2031 36Q2037 51 2037 81L2037 287L1885 519Q1851 572 1826 592Q1802 613 1779 613Q1776 613 1776 619Q1776 625 1779 625L1812 624Q1834 622 1844 622Q1878 622 1940 624L2002 625Q2004 625 2004 619Q2004 613 2002 613Q1961 613 1961 585Q1961 571 1973 553L2118 330L2220 497Q2245 538 2245 569Q2245 613 2190 613Q2188 613 2188 619Q2188 625 2190 625L2242 624Q2284 622 2319 622Q2336 622 2360 624L2397 625ZM2627 -13Q2567 -13 2521 15Q2475 44 2450 92Q2425 141 2425 198Q2425 263 2457 308Q2490 354 2540 376Q2591 399 2644 399Q2705 399 2750 370Q2796 341 2820 293Q2844 246 2844 192Q2844 132 2814 85Q2785 38 2735 12Q2685 -13 2627 -13ZM2657 7Q2701 7 2724 46Q2748 85 2748 160Q2748 227 2729 277Q2711 327 2679 353Q2648 379 2611 379Q2566 379 2543 342Q2520 305 2520 233Q2520 168 2537 116Q2555 65 2586 36Q2618 7 2657 7ZM3169 396Q3192 396 3213 381Q3234 366 3234 345Q3234 326 3222 314Q3211 302 3191 302Q3178 302 3169 307Q3161 313 3152 323Q3143 332 3136 336Q3129 341 3119 341Q3108 341 3095 332Q3083 324 3057 297L3057 81Q3057 53 3065 38Q3073 24 3092 18Q3111 12 3148 12Q3152 12 3152 6Q3152 0 3148 0Q3115 0 3095 1L3016 2L2958 1Q2944 0 2919 0Q2916 0 2916 6Q2916 12 2919 12Q2953 12 2964 26Q2975 40 2975 81L2975 272Q2975 304 2967 319Q2960 334 2943 334Q2928 334 2893 319L2892 319Q2888 319 2886 324Q2884 329 2887 330L3018 394Q3024 396 3025 396Q3035 396 3045 374Q3055 353 3057 318Q3096 362 3122 379Q3148 396 3169 396ZM3744 12Q3747 12 3747 6Q3747 0 3744 0Q3719 0 3704 1L3647 2L3572 1Q3555 0 3526 0Q3524 0 3524 6Q3524 12 3526 12Q3567 12 3567 33Q3567 42 3559 53L3442 207L3412 181L3412 81Q3412 40 3423 26Q3435 12 3469 12Q3473 12 3473 6Q3473 0 3469 0Q3444 0 3429 1L3372 2L3315 1Q3300 0 3275 0Q3272 0 3272 6Q3272 12 3275 12Q3308 12 3320 26Q3332 41 3332 81L3332 592Q3332 627 3325 642Q3318 658 3302 658Q3287 658 3261 646L3260 646Q3257 646 3254 651Q3252 657 3255 658L3394 724L3399 725Q3403 725 3407 721Q3412 717 3412 714L3412 202L3519 298Q3547 322 3547 345Q3547 358 3535 366Q3524 374 3503 374Q3500 374 3500 380Q3500 386 3503 386Q3531 386 3547 385L3623 384L3694 385Q3708 386 3732 386Q3735 386 3735 380Q3735 374 3732 374Q3691 374 3639 353Q3587 333 3543 294L3500 257L3633 81Q3661 44 3688 28Q3715 12 3744 12Z" style="" fill="#000000"></path></g></g><g transform="matrix(1,0,0,1,1136.3841,1062.912)"><g transform="matrix(1.024,0,0,-1.024,0,0)"><path d="M571 503Q571 555 547 584Q524 613 480 613Q478 613 478 619Q478 625 480 625L526 624Q564 622 586 622Q604 622 640 624L684 625Q686 625 686 619Q686 613 684 613Q645 613 623 584Q602 555 602 503L602 223Q602 151 571 97Q541 44 485 15Q430 -14 357 -14Q284 -14 227 14Q170 43 138 96Q107 150 107 222L107 544Q107 574 101 588Q95 602 79 607Q64 613 31 613Q28 613 28 619Q28 625 31 625L83 624Q127 622 154 622Q184 622 228 624L278 625Q281 625 281 619Q281 613 278 613Q245 613 229 607Q214 601 208 586Q202 572 202 542L202 257Q202 138 251 79Q301 21 390 21Q475 21 523 73Q571 126 571 222L571 503ZM1019 63L1021 64Q1024 64 1026 60Q1029 56 1026 54Q989 19 956 3Q923 -12 886 -12Q843 -12 813 8Q784 29 784 77L784 303Q784 336 773 347Q763 358 733 358Q732 358 730 360Q729 363 729 366Q729 369 730 371Q732 374 733 374Q827 378 851 455Q853 459 859 459Q866 459 866 455L866 376Q913 377 999 386Q1001 386 1003 378Q1006 371 1006 362Q1006 353 1002 344Q999 335 995 336Q939 349 866 352L866 110Q866 71 885 52Q905 34 940 34Q982 34 1019 63ZM1541 62L1542 62Q1545 62 1547 57Q1550 52 1547 51L1419 -11L1413 -12Q1403 -12 1394 8Q1386 28 1385 62Q1349 28 1311 7Q1273 -13 1228 -13Q1185 -13 1149 10Q1113 34 1092 78Q1071 122 1071 181Q1071 255 1106 304Q1141 353 1194 376Q1247 399 1300 399Q1344 399 1384 383L1384 592Q1384 627 1377 642Q1371 658 1354 658Q1343 658 1314 646L1312 646Q1308 646 1306 651Q1304 656 1306 657L1447 724L1451 725Q1455 725 1460 721Q1465 717 1465 714L1465 114Q1465 79 1472 64Q1479 50 1496 50Q1516 50 1541 62ZM1278 31Q1307 31 1332 44Q1358 57 1384 81L1384 82L1384 320Q1364 348 1339 361Q1315 375 1281 375Q1224 375 1193 335Q1162 296 1162 212Q1162 128 1194 79Q1227 31 1278 31Z" style="" fill="#000000"></path></g></g></g></svg>