<svg version="1.1" xmlns="http://www.w3.org/2000/svg" viewBox="-250.8799964904785 -3102.4639801025387 6076.4166015625 3420.92795715332"><desc>Created with Snap</desc><defs></defs><g><rect x="-250.8799964904785" y="-3102.4639801025387" width="6076.4166015625" height="3420.92795715332" style="" fill="#c60f7b"></rect><g transform="matrix(42.2025,0,0,42.2025,1774.4675,-2795.264)"><title>Asset 582</title><g data-name="Layer 2"><g><path d="M44,16V11A11.01245,11.01245,0,0,0,33,0H16.03027A11.02769,11.02769,0,0,0,5,11v5H4a3.999,3.999,0,0,0-4,4V30a3.999,3.999,0,0,0,4,4v3a4,4,0,0,0,8,0V34H36v3a4,4,0,0,0,8,0V34a3.999,3.999,0,0,0,4-4V20A3.999,3.999,0,0,0,44,16ZM11,11a5.02117,5.02117,0,0,1,5.03027-5H33a5.00588,5.00588,0,0,1,5,5v5H11ZM9,28a3,3,0,1,1,3-3A2.99594,2.99594,0,0,1,9,28Zm30-6a3,3,0,1,1-3,3A2.99594,2.99594,0,0,1,39,22Z" style="" fill="#ffffff"></path></g></g><desc>Created with Snap</desc><defs></defs></g><g><g transform="matrix(1.024,0,0,-1.024,0,0)"><path d="M138 508Q138 480 148 461Q158 443 178 429Q199 415 230 403Q262 392 305 379Q342 367 378 352Q414 337 442 313Q471 290 488 256Q505 223 505 175Q505 124 485 88Q465 53 432 31Q399 9 355 -1Q312 -11 264 -11Q202 -11 151 3Q100 17 59 38L55 51L72 158L97 158L102 152Q107 91 151 62Q195 34 271 34Q349 34 388 69Q428 105 428 162Q428 197 413 220Q398 244 373 260Q349 277 317 288Q286 299 254 310Q214 323 179 338Q145 354 119 375Q94 396 79 425Q65 454 65 494Q65 541 81 573Q98 606 127 626Q156 647 194 656Q233 665 278 665Q332 665 380 655Q428 645 458 631L462 620L448 531L420 531L415 536Q413 562 398 578Q383 594 362 603Q342 612 318 615Q295 618 277 618Q212 618 175 589Q138 561 138 508ZM1038 293L1031 269L1015 262Q961 262 904 261Q847 260 792 260L674 260Q673 253 673 246Q673 240 673 234Q673 196 684 161Q695 127 718 101Q742 75 779 59Q816 44 869 44Q900 44 935 50Q971 57 1001 74L1011 68L1011 50L1001 39Q977 20 933 4Q889 -11 835 -11Q782 -11 738 6Q695 24 663 56Q632 88 614 132Q597 176 597 230Q597 285 615 330Q633 375 664 407Q696 439 738 457Q781 475 830 475Q856 475 888 468Q921 461 951 441Q981 422 1005 386Q1029 351 1038 293ZM831 430Q799 430 773 419Q748 409 728 391Q709 374 696 350Q684 327 679 301L718 301Q772 301 823 302Q874 304 930 307Q943 308 947 314Q952 320 952 328Q952 334 951 339Q950 344 948 349Q937 387 907 408Q877 430 831 430ZM1102 714L1102 727L1106 731L1124 731Q1141 731 1167 731Q1193 732 1212 735L1248 740L1254 731Q1252 727 1251 716Q1250 706 1249 694Q1248 682 1247 671Q1247 660 1247 654Q1246 638 1245 624Q1245 610 1244 591Q1244 572 1244 545Q1244 518 1244 476L1244 258Q1244 216 1244 189Q1245 162 1245 143Q1246 124 1246 110Q1247 96 1248 78Q1250 57 1252 46Q1255 36 1263 29Q1271 22 1285 20Q1300 18 1315 18L1320 13L1322 0L1320 -4Q1313 -4 1299 -3Q1285 -2 1269 -2Q1253 -1 1239 -1Q1225 0 1218 0L1204 0Q1197 0 1182 -1Q1168 -1 1152 -2Q1137 -2 1122 -3Q1108 -4 1101 -4L1100 0L1101 14L1105 18Q1121 18 1136 19Q1152 21 1160 29Q1168 36 1170 47Q1173 58 1175 78Q1176 91 1176 104Q1177 117 1177 134Q1178 152 1178 175Q1178 199 1178 234L1178 474Q1178 515 1178 543Q1178 572 1177 593Q1177 614 1176 630Q1176 646 1175 662Q1174 673 1169 681Q1165 689 1162 693Q1152 704 1137 707Q1122 710 1106 710L1102 714ZM1372 714L1372 727L1376 731L1394 731Q1411 731 1437 731Q1463 732 1482 735L1518 740L1524 731Q1522 727 1521 716Q1520 706 1519 694Q1518 682 1517 671Q1517 660 1517 654Q1516 638 1515 624Q1515 610 1514 591Q1514 572 1514 545Q1514 518 1514 476L1514 258Q1514 216 1514 189Q1515 162 1515 143Q1516 124 1516 110Q1517 96 1518 78Q1520 57 1522 46Q1525 36 1533 29Q1541 22 1555 20Q1570 18 1585 18L1590 13L1592 0L1590 -4Q1583 -4 1569 -3Q1555 -2 1539 -2Q1523 -1 1509 -1Q1495 0 1488 0L1474 0Q1467 0 1452 -1Q1438 -1 1422 -2Q1407 -2 1392 -3Q1378 -4 1371 -4L1370 0L1371 14L1375 18Q1391 18 1406 19Q1422 21 1430 29Q1438 36 1440 47Q1443 58 1445 78Q1446 91 1446 104Q1447 117 1447 134Q1448 152 1448 175Q1448 199 1448 234L1448 474Q1448 515 1448 543Q1448 572 1447 593Q1447 614 1446 630Q1446 646 1445 662Q1444 673 1439 681Q1435 689 1432 693Q1422 704 1407 707Q1392 710 1376 710L1372 714ZM2170 531L2167 535Q2164 557 2148 572Q2132 587 2108 596Q2085 605 2056 608Q2028 612 2000 612Q1901 612 1844 567Q1797 529 1773 466Q1750 403 1750 328Q1750 257 1770 203Q1791 150 1827 114Q1863 78 1912 59Q1962 41 2020 41Q2061 41 2114 52Q2168 64 2216 97L2226 86L2204 41Q2154 14 2104 1Q2055 -11 2002 -11Q1927 -11 1866 13Q1805 37 1761 81Q1718 126 1694 187Q1670 249 1670 324Q1670 394 1691 456Q1713 519 1755 565Q1798 611 1860 638Q1923 665 2006 665Q2024 665 2048 663Q2073 662 2100 658Q2127 654 2155 647Q2183 641 2209 631L2212 622L2199 531L2170 531ZM2596 -3L2590 7Q2593 18 2594 40Q2596 62 2599 81L2598 84Q2585 66 2567 49Q2549 32 2527 18Q2506 5 2481 -3Q2457 -11 2430 -11Q2399 -11 2375 0Q2351 11 2335 29Q2319 47 2311 71Q2303 95 2303 121Q2303 158 2320 185Q2337 213 2365 231Q2391 247 2426 257Q2462 267 2495 271Q2529 276 2556 277Q2583 279 2592 279L2606 279Q2605 316 2602 337Q2599 359 2594 373Q2583 403 2556 416Q2529 430 2491 430Q2475 430 2456 427Q2438 424 2421 416Q2405 408 2393 393Q2381 379 2379 356L2375 353L2353 353L2344 427L2347 433Q2352 439 2368 446Q2384 453 2405 459Q2427 466 2453 470Q2480 475 2506 475Q2542 475 2573 465Q2604 456 2626 437Q2649 418 2662 389Q2675 361 2675 323Q2675 281 2674 248Q2674 216 2673 188Q2672 161 2671 134Q2671 108 2671 78Q2673 55 2676 44Q2679 34 2686 29Q2694 21 2709 19Q2725 18 2741 18L2745 14L2746 0L2745 -4Q2727 -2 2706 -1Q2685 0 2665 0Q2627 0 2596 -3ZM2590 115Q2593 120 2596 127Q2600 134 2601 144L2606 244L2597 244Q2557 244 2517 239Q2477 235 2445 222Q2414 209 2394 186Q2374 163 2374 127Q2374 89 2396 66Q2418 44 2453 44Q2474 44 2495 51Q2516 58 2534 69Q2553 80 2567 92Q2582 104 2590 115ZM2936 355L2939 354Q2949 373 2961 394Q2974 415 2990 433Q3006 451 3026 463Q3047 475 3073 475Q3091 475 3113 469Q3136 464 3144 455L3152 446L3140 369L3107 369Q3104 383 3091 394Q3079 406 3053 406Q3028 406 3007 391Q2986 377 2970 355Q2955 333 2946 308Q2938 284 2938 264L2938 175Q2938 153 2938 139Q2939 126 2939 116Q2940 107 2940 100Q2941 94 2941 87L2942 78Q2944 63 2946 49Q2949 36 2957 29Q2962 25 2971 23Q2981 21 2991 20Q3002 19 3012 18Q3022 18 3028 18L3033 13L3035 0L3033 -4Q3026 -4 3010 -3Q2995 -2 2978 -2Q2961 -1 2945 -1Q2930 0 2923 0L2899 0Q2892 0 2877 -1Q2863 -1 2847 -2Q2831 -2 2816 -3Q2802 -4 2795 -4L2794 0L2795 14L2799 18Q2815 18 2830 19Q2846 21 2854 29Q2862 36 2864 47Q2867 58 2869 78L2870 87Q2871 97 2871 112Q2872 127 2872 163L2872 286Q2872 307 2872 321Q2872 336 2871 347Q2871 358 2870 367Q2870 376 2869 386Q2867 397 2863 405Q2859 414 2856 417Q2846 429 2831 431Q2816 434 2800 434L2796 438L2796 452L2800 455L2818 455Q2835 455 2861 455Q2887 456 2906 459L2941 464L2947 455Q2941 434 2938 407Q2936 380 2936 355ZM3232 35Q3232 54 3245 68Q3258 83 3278 83Q3297 83 3311 68Q3326 54 3326 35Q3326 16 3311 2Q3297 -11 3278 -11Q3258 -11 3245 2Q3232 16 3232 35ZM3835 353L3814 353L3810 356Q3810 379 3796 393Q3783 408 3764 416Q3745 424 3723 427Q3702 430 3686 430Q3640 430 3606 413Q3573 397 3551 369Q3529 342 3518 306Q3508 271 3508 234Q3508 196 3519 161Q3531 126 3555 99Q3579 72 3615 56Q3651 40 3701 40Q3735 40 3776 50Q3818 61 3848 77L3858 67L3843 39Q3832 31 3814 22Q3797 14 3775 6Q3753 -1 3727 -6Q3702 -11 3677 -11Q3628 -11 3583 6Q3539 24 3505 55Q3472 87 3452 131Q3432 176 3432 230Q3432 285 3452 330Q3472 375 3507 407Q3542 439 3588 457Q3635 475 3688 475Q3736 475 3778 463Q3821 451 3843 439L3846 430L3835 353ZM4187 475Q4246 475 4292 454Q4338 434 4369 399Q4401 365 4417 320Q4434 275 4434 227Q4434 181 4419 138Q4404 95 4373 62Q4342 29 4296 9Q4250 -11 4189 -11Q4126 -11 4079 10Q4032 31 4001 65Q3971 99 3956 142Q3941 186 3941 232Q3941 281 3958 325Q3975 369 4006 402Q4038 436 4083 455Q4129 475 4187 475ZM4188 28Q4230 28 4262 45Q4294 62 4315 90Q4336 118 4346 153Q4357 189 4357 227Q4357 263 4345 300Q4334 337 4312 366Q4290 396 4258 414Q4226 433 4184 433Q4140 433 4108 415Q4077 398 4056 370Q4036 342 4026 306Q4016 270 4016 234Q4016 197 4027 160Q4039 124 4061 94Q4083 65 4115 46Q4147 28 4188 28ZM4513 438L4513 452L4517 455L4535 455Q4552 455 4578 455Q4604 456 4623 459L4658 464L4664 455Q4662 449 4660 439Q4659 430 4657 418Q4656 407 4655 396Q4654 385 4654 377L4657 375Q4668 395 4682 413Q4697 432 4716 445Q4735 459 4759 467Q4783 475 4814 475Q4840 475 4865 468Q4890 462 4911 448Q4933 435 4949 413Q4966 392 4975 362Q4987 384 5001 404Q5016 425 5035 440Q5055 456 5080 465Q5106 475 5139 475Q5168 475 5195 467Q5223 459 5245 442Q5268 425 5284 399Q5301 373 5307 336Q5312 310 5312 281Q5313 252 5313 223L5313 78Q5313 55 5317 44Q5321 34 5328 29Q5336 21 5351 19Q5367 18 5383 18L5387 14L5389 0L5387 -4Q5369 -2 5348 -1Q5328 0 5307 0Q5270 0 5239 -3L5232 7Q5236 20 5238 41Q5240 62 5241 78Q5242 93 5242 115Q5243 137 5243 159Q5244 182 5244 202Q5244 222 5244 233Q5244 253 5242 283Q5241 314 5236 335Q5226 376 5195 397Q5165 418 5127 418Q5099 418 5075 407Q5052 397 5034 381Q5016 366 5003 347Q4991 328 4985 311Q4987 289 4987 267Q4988 245 4988 223L4988 78Q4988 57 4992 46Q4996 36 5004 29Q5012 22 5026 20Q5041 18 5056 18L5061 13L5063 0L5061 -4Q5054 -4 5040 -3Q5026 -2 5010 -2Q4994 -1 4980 -1Q4966 0 4959 0L4945 0Q4938 0 4923 -1Q4909 -1 4893 -2Q4878 -2 4863 -3Q4849 -4 4842 -4L4840 0L4842 14L4846 18Q4862 18 4877 19Q4893 21 4901 29Q4909 36 4911 47Q4913 58 4915 78Q4916 93 4916 115Q4917 137 4917 159Q4918 182 4918 202Q4919 222 4919 233Q4919 243 4919 256Q4919 270 4918 284Q4917 298 4915 311Q4914 324 4911 335Q4900 376 4870 397Q4840 418 4802 418Q4769 418 4742 403Q4715 389 4695 368Q4676 348 4665 325Q4655 303 4655 287L4655 175Q4655 153 4655 139Q4656 125 4656 115Q4657 105 4657 96Q4658 88 4659 78Q4661 57 4663 46Q4666 36 4674 29Q4682 22 4696 20Q4711 18 4726 18L4731 13L4733 0L4731 -4Q4724 -4 4710 -3Q4696 -2 4680 -2Q4664 -1 4650 -1Q4636 0 4629 0L4615 0Q4608 0 4593 -1Q4579 -1 4563 -2Q4548 -2 4533 -3Q4519 -4 4512 -4L4511 0L4512 14L4516 18Q4532 18 4547 19Q4563 21 4571 29Q4579 36 4581 47Q4584 58 4586 78Q4587 94 4588 110Q4589 127 4589 163L4589 286Q4589 307 4589 321Q4589 336 4588 347Q4588 358 4587 367Q4587 376 4586 386Q4584 397 4580 405Q4576 414 4573 417Q4563 429 4548 431Q4533 434 4517 434L4513 438Z" style="" fill="#ffffff"></path></g></g></g></svg>