<svg version="1.1" xmlns="http://www.w3.org/2000/svg" viewBox="0 0 250 250"><desc>Created with Snap</desc><defs></defs><g transform="matrix(0.0452,0,0,0.0452,108.746,117.4109)"><g transform="matrix(60.6891,0,0,60.6891,-2159.8891,-803.0891)"><g transform="translate(0,-1020.3622)"><path style="color: rgb(0, 0, 0); font-style: normal; font-variant: normal; font-weight: normal; font-stretch: normal; font-size: medium; line-height: normal; font-family: sans-serif; text-indent: 0px; text-align: start; text-decoration: rgb(0, 0, 0); letter-spacing: normal; word-spacing: normal; text-transform: none; direction: ltr; writing-mode: horizontal-tb; text-anchor: start; white-space: normal; clip-rule: nonzero; display: inline; overflow: visible; visibility: visible; opacity: 1; isolation: auto; mix-blend-mode: normal; color-interpolation: srgb; color-interpolation-filters: linearrgb; fill-opacity: 1; fill-rule: evenodd; stroke: none; stroke-width: 1px; stroke-linecap: butt; stroke-linejoin: miter; stroke-miterlimit: 4; stroke-dasharray: none; stroke-dashoffset: 0px; stroke-opacity: 1; image-rendering: auto; shape-rendering: auto; text-rendering: auto;" d="M 15 1 C 12.796783 1 11 2.7968 11 5 C 11 5.6546295 11.174294 6.2621942 11.455078 6.8085938 L 5.1347656 12.226562 C 4.7841998 12.082202 4.4012682 12 4 12 C 2.3490681 12 1 13.3491 1 15 C 1 16.651 2.3490681 18 4 18 C 4.3223201 18 4.6284069 17.934891 4.9199219 17.839844 L 10.457031 27.068359 C 10.170848 27.474845 10 27.968062 10 28.5 C 10 29.8748 11.12521 31 12.5 31 C 13.747095 31 14.780132 30.071238 14.962891 28.873047 L 25.037109 25.515625 C 25.449884 25.816605 25.953124 26 26.5 26 C 27.87479 26 29 24.8748 29 23.5 C 29 22.943704 28.810453 22.432176 28.5 22.015625 L 29.455078 9.6035156 C 30.370789 9.0885994 31 8.1207185 31 7 C 31 5.3491 29.650932 4 28 4 C 27.134284 4 26.357302 4.3758715 25.808594 4.9667969 L 18.839844 3.9453125 C 18.372859 2.2544815 16.835947 1 15 1 z M 15 2 C 16.662777 2 18 3.3373 18 5 C 18 6.6628 16.662777 8 15 8 C 13.337223 8 12 6.6628 12 5 C 12 3.3373 13.337223 2 15 2 z M 18.998047 4.9785156 L 25.21875 5.8925781 C 25.081111 6.2360264 25 6.6086946 25 7 C 25 7.9000535 25.408807 8.7010389 26.041016 9.2519531 L 19.875 15.417969 C 19.479439 15.155095 19.007772 15 18.5 15 C 17.509241 15 16.655742 15.588652 16.251953 16.429688 L 6.9414062 15.583984 C 6.9792633 15.39441 7 15.200338 7 15 C 7 14.124925 6.6138374 13.342483 6.0117188 12.792969 L 12.021484 7.640625 C 12.755152 8.4670166 13.812384 9 15 9 C 17.203217 9 19 7.2032 19 5 C 19 4.9926553 18.998087 4.9858513 18.998047 4.9785156 z M 28 5 C 29.110492 5 30 5.8895 30 7 C 30 8.1105 29.110492 9 28 9 C 26.889508 9 26 8.1105 26 7 C 26 5.8895 26.889508 5 28 5 z M 26.917969 9.7890625 C 27.254532 9.9204133 27.618193 10 28 10 C 28.145621 10 28.285576 9.9753505 28.425781 9.9550781 L 27.556641 21.244141 C 27.234205 21.091786 26.878567 21 26.5 21 C 25.967136 21 25.475247 21.171889 25.068359 21.458984 L 20.626953 18.792969 C 20.859124 18.413878 21 17.974607 21 17.5 C 21 16.992527 20.846572 16.518465 20.583984 16.123047 L 26.917969 9.7890625 z M 4 13 C 5.1104918 13 6 13.8895 6 15 C 6 16.1105 5.1104918 17 4 17 C 2.8895082 17 2 16.1105 2 15 C 2 13.8895 2.8895082 13 4 13 z M 18.5 16 C 19.334349 16 20 16.6657 20 17.5 C 20 18.3344 19.334349 19 18.5 19 C 17.665651 19 17 18.3344 17 17.5 C 17 16.6657 17.665651 16 18.5 16 z M 6.5527344 16.552734 L 16.009766 17.412109 C 16.008703 17.441867 16 17.469995 16 17.5 C 16 18.8748 17.12521 20 18.5 20 C 19.031925 20 19.523206 19.827189 19.929688 19.541016 L 24.371094 22.207031 C 24.13977 22.585631 24 23.026333 24 23.5 C 24 23.937372 24.122695 24.342517 24.322266 24.701172 L 14.900391 27.841797 C 14.608509 26.785121 13.646095 26 12.5 26 C 12.025542 26 11.586046 26.141008 11.207031 26.373047 L 5.8085938 17.375 C 6.1047653 17.148637 6.3574473 16.871712 6.5527344 16.552734 z M 26.5 22 C 27.334349 22 28 22.6657 28 23.5 C 28 24.3344 27.334349 25 26.5 25 C 25.665651 25 25 24.3344 25 23.5 C 25 22.6657 25.665651 22 26.5 22 z M 12.5 27 C 13.334349 27 14 27.6657 14 28.5 C 14 29.3344 13.334349 30 12.5 30 C 11.665651 30 11 29.3344 11 28.5 C 11 27.6657 11.665651 27 12.5 27 z " transform="translate(0,1020.3622)" fill="#efa07b"></path></g><desc>Created with Snap</desc><defs></defs></g><g><g transform="matrix(1.024,0,0,-1.024,0,0)"><path d="M571 503Q571 555 547 584Q524 613 480 613Q478 613 478 619Q478 625 480 625L526 624Q564 622 586 622Q604 622 640 624L684 625Q686 625 686 619Q686 613 684 613Q645 613 623 584Q602 555 602 503L602 223Q602 151 571 97Q541 44 485 15Q430 -14 357 -14Q284 -14 227 14Q170 43 138 96Q107 150 107 222L107 544Q107 574 101 588Q95 602 79 607Q64 613 31 613Q28 613 28 619Q28 625 31 625L83 624Q127 622 154 622Q184 622 228 624L278 625Q281 625 281 619Q281 613 278 613Q245 613 229 607Q214 601 208 586Q202 572 202 542L202 257Q202 138 251 79Q301 21 390 21Q475 21 523 73Q571 126 571 222L571 503ZM1205 12Q1208 12 1208 6Q1208 0 1205 0Q1180 0 1166 1L1108 2L1051 1Q1036 0 1011 0Q1008 0 1008 6Q1008 12 1011 12Q1045 12 1056 26Q1067 40 1067 81L1067 231Q1067 287 1046 313Q1026 340 982 340Q956 340 929 328Q902 316 880 296L880 81Q880 40 891 26Q902 12 936 12Q939 12 939 6Q939 0 936 0Q911 0 897 1L839 2L781 1Q767 0 742 0Q739 0 739 6Q739 12 742 12Q776 12 787 26Q798 40 798 81L798 272Q798 304 790 319Q783 334 766 334Q751 334 716 319L715 319Q711 319 709 324Q707 329 710 330L841 394Q847 396 848 396Q858 396 868 373Q879 351 880 315Q950 398 1032 398Q1087 398 1118 364Q1149 331 1149 274L1149 81Q1149 40 1160 26Q1171 12 1205 12ZM1268 0Q1265 0 1265 6Q1265 12 1268 12Q1302 12 1313 26Q1324 40 1324 81L1324 263Q1324 297 1317 312Q1310 328 1293 328Q1278 328 1254 316L1253 316Q1249 316 1247 321Q1245 326 1248 328L1392 395L1395 396Q1399 396 1403 391Q1408 387 1408 384L1408 363Q1406 321 1406 264L1406 81Q1406 40 1417 26Q1429 12 1463 12Q1466 12 1466 6Q1466 0 1463 0Q1438 0 1423 1L1365 2L1307 1Q1293 0 1268 0ZM1360 501Q1334 501 1319 515Q1305 529 1305 555Q1305 580 1319 593Q1334 607 1360 607Q1385 607 1399 593Q1413 580 1413 555Q1413 529 1399 515Q1386 501 1360 501ZM1808 63L1810 64Q1813 64 1815 60Q1818 56 1815 54Q1778 19 1745 3Q1712 -12 1675 -12Q1632 -12 1602 8Q1573 29 1573 77L1573 303Q1573 336 1562 347Q1552 358 1522 358Q1521 358 1519 360Q1518 363 1518 366Q1518 369 1519 371Q1521 374 1522 374Q1616 378 1640 455Q1642 459 1648 459Q1655 459 1655 455L1655 376Q1702 377 1788 386Q1790 386 1792 378Q1795 371 1795 362Q1795 353 1791 344Q1788 335 1784 336Q1728 349 1655 352L1655 110Q1655 71 1674 52Q1694 34 1729 34Q1771 34 1808 63ZM2205 62L2207 63Q2209 63 2211 59Q2214 55 2212 53Q2176 19 2139 3Q2102 -12 2058 -12Q1996 -12 1951 14Q1907 41 1883 85Q1860 130 1860 181Q1860 240 1889 289Q1919 338 1970 366Q2022 395 2084 395Q2143 395 2175 368Q2207 342 2207 296Q2207 269 2196 269L2141 269L1953 267Q1950 246 1950 222Q1950 135 1990 83Q2031 32 2103 32Q2129 32 2156 39Q2183 47 2205 62ZM2048 375Q2015 375 1991 351Q1967 327 1957 285L2113 288Q2111 329 2095 352Q2079 375 2048 375ZM2745 62L2746 62Q2749 62 2751 57Q2754 52 2751 51L2623 -11L2617 -12Q2607 -12 2598 8Q2590 28 2589 62Q2553 28 2515 7Q2477 -13 2432 -13Q2389 -13 2353 10Q2317 34 2296 78Q2275 122 2275 181Q2275 255 2310 304Q2345 353 2398 376Q2451 399 2504 399Q2548 399 2588 383L2588 592Q2588 627 2581 642Q2575 658 2558 658Q2547 658 2518 646L2516 646Q2512 646 2510 651Q2508 656 2510 657L2651 724L2655 725Q2659 725 2664 721Q2669 717 2669 714L2669 114Q2669 79 2676 64Q2683 50 2700 50Q2720 50 2745 62ZM2482 31Q2511 31 2536 44Q2562 57 2588 81L2588 82L2588 320Q2568 348 2543 361Q2519 375 2485 375Q2428 375 2397 335Q2366 296 2366 212Q2366 128 2398 79Q2431 31 2482 31Z" style="" fill="#4a274f"></path></g></g><g transform="matrix(1,0,0,1,0,1063.936)"><g transform="matrix(1.024,0,0,-1.024,0,0)"><path d="M571 503Q571 555 547 584Q524 613 480 613Q478 613 478 619Q478 625 480 625L526 624Q564 622 586 622Q604 622 640 624L684 625Q686 625 686 619Q686 613 684 613Q645 613 623 584Q602 555 602 503L602 223Q602 151 571 97Q541 44 485 15Q430 -14 357 -14Q284 -14 227 14Q170 43 138 96Q107 150 107 222L107 544Q107 574 101 588Q95 602 79 607Q64 613 31 613Q28 613 28 619Q28 625 31 625L83 624Q127 622 154 622Q184 622 228 624L278 625Q281 625 281 619Q281 613 278 613Q245 613 229 607Q214 601 208 586Q202 572 202 542L202 257Q202 138 251 79Q301 21 390 21Q475 21 523 73Q571 126 571 222L571 503ZM1019 63L1021 64Q1024 64 1026 60Q1029 56 1026 54Q989 19 956 3Q923 -12 886 -12Q843 -12 813 8Q784 29 784 77L784 303Q784 336 773 347Q763 358 733 358Q732 358 730 360Q729 363 729 366Q729 369 730 371Q732 374 733 374Q827 378 851 455Q853 459 859 459Q866 459 866 455L866 376Q913 377 999 386Q1001 386 1003 378Q1006 371 1006 362Q1006 353 1002 344Q999 335 995 336Q939 349 866 352L866 110Q866 71 885 52Q905 34 940 34Q982 34 1019 63ZM1541 62L1542 62Q1545 62 1547 57Q1550 52 1547 51L1419 -11L1413 -12Q1403 -12 1394 8Q1386 28 1385 62Q1349 28 1311 7Q1273 -13 1228 -13Q1185 -13 1149 10Q1113 34 1092 78Q1071 122 1071 181Q1071 255 1106 304Q1141 353 1194 376Q1247 399 1300 399Q1344 399 1384 383L1384 592Q1384 627 1377 642Q1371 658 1354 658Q1343 658 1314 646L1312 646Q1308 646 1306 651Q1304 656 1306 657L1447 724L1451 725Q1455 725 1460 721Q1465 717 1465 714L1465 114Q1465 79 1472 64Q1479 50 1496 50Q1516 50 1541 62ZM1278 31Q1307 31 1332 44Q1358 57 1384 81L1384 82L1384 320Q1364 348 1339 361Q1315 375 1281 375Q1224 375 1193 335Q1162 296 1162 212Q1162 128 1194 79Q1227 31 1278 31Z" style="" fill="#4a274f"></path></g></g></g></svg>